<svg class="svg-icon" style="width: 1em; height: 1em;vertical-align: middle;fill: currentColor;overflow: hidden;" viewBox="0 0 1024 1024" version="1.1" xmlns="http://www.w3.org/2000/svg"><path d="M512 512m-414 0a414 414 0 1 0 828 0 414 414 0 1 0-828 0Z" fill="#F0C48A" /><path d="M69.4 187.6V83.4C69.4 44 101.6 11.8 141 11.8h501.6c39.4 0 71.8 32.2 71.8 71.8v857c0 39.4-32.2 71.8-71.8 71.8H141c-39.4 0-71.8-32.2-71.8-71.8V187.6z" fill="#A4CFF2" /><path d="M69.4 152.4h647v650.8H69.4z" fill="#FFFFFF" /><path d="M239 152.4h477.4v650.8H239z" fill="#D3E6F8" /><path d="M616.2 158.2h98.2V68c0-29.4-23.8-53.2-53.2-53.2h-45v143.4zM616.2 1012.2h25.2c40.4 0 73.2-32.8 73.2-73.2v-126.8c0-5-4-9-9-9h-89.2v209z" fill="#7BABF1" /><path d="M616.2 158.2h98.2v645h-98.2z" fill="#A4CFF2" /><path d="M361.709561 936.145668a44 44 0 1 0 62.224311-62.226482 44 44 0 1 0-62.224311 62.226482Z" fill="#7BABF1" /><path d="M711.6 164.2H72.2c-6.4 0-11.8-5.2-11.8-11.8s5.2-11.8 11.8-11.8h639.6c6.4 0 11.8 5.2 11.8 11.8s-5.4 11.8-12 11.8zM711.6 815H72.2c-6.4 0-11.8-5.2-11.8-11.8 0-6.4 5.2-11.8 11.8-11.8h639.6c6.4 0 11.8 5.2 11.8 11.8-0.2 6.6-5.4 11.8-12 11.8zM392.8 960.6c-30.8 0-55.6-25-55.6-55.6 0-30.8 25-55.6 55.6-55.6s55.6 25 55.6 55.6c0.2 30.6-24.8 55.6-55.6 55.6z m0-87.8c-17.8 0-32.2 14.4-32.2 32.2s14.4 32.2 32.2 32.2 32.2-14.4 32.2-32.2-14.4-32.2-32.2-32.2z" fill="#4C4372" /><path d="M642.6 1024H141c-46 0-83.4-37.4-83.4-83.4V83.4C57.6 37.4 95 0 141 0h501.6c46 0 83.4 37.4 83.4 83.4v857c0.2 46.2-37.2 83.6-83.4 83.6zM141 23.4c-33.2 0-60 27-60 60v857c0 33.2 27 60 60 60h501.6c33.2 0 60-27 60-60V83.4c0-33.2-27-60-60-60H141z" fill="#4C4372" /><path d="M117.6 235.6h121.4v121.4H117.6z" fill="#FD919E" /><path d="M201.8 235.6h37.2V352h-37.2z" fill="#E8677D" /><path d="M239 368.8H117.6c-6.4 0-11.8-5.2-11.8-11.8v-121.4c0-6.4 5.2-11.8 11.8-11.8h121.4c6.4 0 11.8 5.2 11.8 11.8v121.4c0 6.4-5.2 11.8-11.8 11.8z m-109.6-23.6h98v-98h-98v98z" fill="#4C4372" /><path d="M117.6 414.8h121.4v121.4H117.6z" fill="#FD919E" /><path d="M201.8 414.8h37.2v116.4h-37.2z" fill="#E8677D" /><path d="M239 548H117.6c-6.4 0-11.8-5.2-11.8-11.8v-121.4c0-6.4 5.2-11.8 11.8-11.8h121.4c6.4 0 11.8 5.2 11.8 11.8v121.4c0 6.6-5.2 11.8-11.8 11.8z m-109.6-23.4h98v-98h-98v98z" fill="#4C4372" /><path d="M117.6 594.2h121.4v121.4H117.6z" fill="#FD919E" /><path d="M201.8 594.2h37.2v116.4h-37.2z" fill="#E8677D" /><path d="M239 727.2H117.6c-6.4 0-11.8-5.2-11.8-11.8V594c0-6.4 5.2-11.8 11.8-11.8h121.4c6.4 0 11.8 5.2 11.8 11.8v121.4c0 6.6-5.2 11.8-11.8 11.8z m-109.6-23.4h98v-98h-98v98z" fill="#4C4372" /><path d="M457.6 98.2h-129.4c-6.4 0-11.8-5.2-11.8-11.8s5.2-11.8 11.8-11.8h129.4c6.4 0 11.8 5.2 11.8 11.8s-5.4 11.8-11.8 11.8z" fill="#4C4372" /><path d="M289.8 815c-6.4 0-11.8-5.2-11.8-11.8V152.4c0-6.4 5.2-11.8 11.8-11.8s11.8 5.2 11.8 11.8v650.8c-0.2 6.6-5.4 11.8-11.8 11.8z" fill="#4C4372" /><path d="M531.2 657l-98.2 40 40-98.2L884.6 187.6c16-16 42-16 58 0s16 42 0 58L531.2 657z" fill="#FD919E" /><path d="M948.6 233.6c12-15.2 11-37.4-3-51.6-15.2-15.2-39.8-15.2-55.2 0l-48.6 48.6 33.6 33.6-424.6 424.4 52.6-14.8 28-16.6L936.4 252c5.4-5.4 9.4-11.8 12.2-18.4z" fill="#E8677D" /><path d="M433.2 708.8c-3 0-6-1.2-8.2-3.4-3.4-3.4-4.4-8.4-2.6-12.8l40-98.2c0.6-1.4 1.4-2.8 2.6-3.8L876.4 179.4c20.6-20.6 54-20.6 74.6 0 20.6 20.6 20.6 54 0 74.6L539.6 665.4c-1.2 1.2-2.4 2-3.8 2.6l-98.2 40c-1.4 0.6-3 0.8-4.4 0.8z m50-103.2l-28.6 70 70-28.6 409.8-409.8c11.4-11.4 11.4-30 0-41.4-11.4-11.4-30-11.4-41.4 0L483.2 605.6z m48 51.4z" fill="#4C4372" /><path d="M894 294.6c-3 0-6-1.2-8.2-3.4l-51-51c-4.6-4.6-4.6-12 0-16.6 4.6-4.6 12-4.6 16.6 0l51 51c4.6 4.6 4.6 12 0 16.6-2.4 2.2-5.4 3.4-8.4 3.4z" fill="#4C4372" /></svg>